<svg xmlns="http://www.w3.org/2000/svg" width="933.333" height="933.333" viewBox="0 0 700.000000 700.000000"><path d="M320 .7C219.1 8 131.5 57.2 67.6 142.3 32.1 189.6 10.6 243 2.3 304.6c-2.2 16.6-2.5 70.2-.5 86.9 10 81.4 44 149.2 104.3 208 61.8 60.2 129.6 92 212.4 99.5 14.2 1.3 47.6 1.3 63 0 69.7-6 132.1-31.2 188-75.9 15.1-12.1 40.9-37.2 53-51.6 44.6-53.2 69.2-113 76.1-185.5 2-20.4 1.4-63.9-1-83-5.3-41.4-15.7-75.9-33.2-111-17.1-34.2-37.4-62.1-65.9-90.5-27.5-27.5-54.2-47.2-87-64.1-39.9-20.7-80.9-32.2-129-36.3C371.6.1 331-.1 320 .7zm62 64.4c64.2 5.8 121.2 33.1 169.6 81.4 18 17.8 28.8 30.7 39.7 47.1 32.9 49.7 48.4 109.7 44.7 173.2-4.3 75.9-30.5 133.7-83.7 185.2-60.3 58.5-130.8 86.4-210.8 83.7-73.5-2.6-135.2-28.8-188.2-80-38.1-36.9-62.6-75.3-77.2-121.1-14.5-45.2-16.5-100.1-5.5-149.1 14.1-63.1 55.2-124.8 111.4-167.4 56-42.4 122.5-60 200-53z"/><path d="M185 347.9V445h50v-62h21.8c33.6 0 46.7-2.2 63.2-10.3 15.5-7.6 27.5-22.9 31.6-40.3 2.5-10.8 1.5-31.4-2-41.9-6.6-19.4-19.2-30.7-41.1-36.7-7.7-2.1-9.9-2.2-65.7-2.6l-57.8-.3v97zm105-57.3c5.8 2.7 11.6 9.1 13.1 14.6.7 2.4 1.3 7.7 1.3 11.8 0 9-2.6 15.9-8.2 21.3-6.9 6.8-8.8 7.1-36.9 7.5l-25.3.4v-58.3l25.8.3c23.6.3 26.1.5 30.2 2.4zM366 347.9V445h44.8c56.4 0 65-1.2 85.3-11.6 31.7-16.3 45.3-44.9 43.6-91.8-.8-21.1-3.2-31.8-10.3-46-10.8-21.6-29.9-35.2-58.9-41.8-8.3-1.9-12.9-2.1-56.7-2.5l-47.8-.5v97.1zm94-53.4c14.8 4.7 23.7 14.8 28.6 32.6 2.5 9 2.5 32.8 0 41.9-3.8 13.9-11.5 24.9-20.7 29.6-8.4 4.2-15.9 5.4-35.1 5.4H415V291.8l19.8.5c14.8.3 21.1.9 25.2 2.2z"/></svg>
